<svg height="480pt" viewBox="0 0 480 480" width="480pt" xmlns="http://www.w3.org/2000/svg"><path d="m432 336h48v104h-48zm0 0" fill="#155671"/><path d="m432 336h32v104h-32zm0 0" fill="#1f80aa"/><path d="m440 440v40h32v-40" fill="#0a558b"/><path d="m440 440h16v40h-16zm0 0" fill="#0d71ba"/><path d="m472 72-16-40-16 40zm0 0" fill="#666"/><path d="m440 72h24l-12-30zm0 0" fill="#808080"/><path d="m440 72h32v264h-32zm0 0" fill="#0a558b"/><path d="m440 72h16v264h-16zm0 0" fill="#0d71ba"/><path d="m352 128h48v352h-48zm0 0" fill="#b96e16"/><path d="m352 128h24v352h-24zm0 0" fill="#f7931e"/><path d="m352 432h48v48h-48zm0 0" fill="#1a1a1a"/><path d="m352 432h32v48h-32zm0 0" fill="#333"/><path d="m400 128-24-80-24 80zm0 0" fill="#f9a94b"/><path d="m352 128h32l-16-53.335938zm0 0" fill="#fabe78"/><path d="m0 0h304v480h-304zm0 0" fill="#66aad7"/><path d="m0 0h272v480h-272zm0 0" fill="#99c6e4"/><path d="m48 96h32v32h-32zm0 0" fill="#8c6239"/><path d="m48 96h16v32h-16zm0 0" fill="#a67c52"/><path d="m48 160h32v32h-32zm0 0" fill="#8c6239"/><path d="m48 160h16v32h-16zm0 0" fill="#a67c52"/><path d="m48 224h32v32h-32zm0 0" fill="#8c6239"/><path d="m48 224h16v32h-16zm0 0" fill="#a67c52"/><path d="m48 288h32v32h-32zm0 0" fill="#8c6239"/><path d="m48 288h16v32h-16zm0 0" fill="#a67c52"/><path d="m48 352h32v32h-32zm0 0" fill="#8c6239"/><path d="m48 352h16v32h-16zm0 0" fill="#a67c52"/><g fill="#4d4d4d"><path d="m72 24h160v16h-160zm0 0"/><path d="m104 56h88v16h-88zm0 0"/><path d="m120 104h144v16h-144zm0 0"/><path d="m120 168h144v16h-144zm0 0"/><path d="m120 232h144v16h-144zm0 0"/><path d="m120 296h144v16h-144zm0 0"/><path d="m120 360h144v16h-144zm0 0"/></g></svg>